<svg xmlns="http://www.w3.org/2000/svg" width="173" height="34" viewBox="0 0 173 34" fill="none"><path d="M50.5211 8.66312C51.7404 9.31557 52.6729 10.2942 53.3543 11.5992C54.0356 12.8678 54.3943 14.4264 54.3943 16.2388V24.467C54.3943 24.9744 54.2508 25.3731 53.9281 25.6994C53.6053 26.0256 53.2108 26.1706 52.7087 26.1706C52.2067 26.1706 51.8122 26.0256 51.4894 25.6994C51.1667 25.3731 51.0232 24.9744 51.0232 24.467V16.2388C51.0232 14.4264 50.557 13.049 49.5887 12.1429C48.6204 11.2004 47.3652 10.7655 45.7514 10.7655C44.819 10.7655 43.9942 10.9467 43.2052 11.3454C42.4521 11.7079 41.8424 12.2516 41.4121 12.9041C40.9817 13.5565 40.7666 14.2815 40.7666 15.0789V24.5394C40.7666 25.0469 40.6231 25.4456 40.3004 25.7719C39.9776 26.0981 39.5831 26.2431 39.081 26.2431C38.579 26.2431 38.1845 26.0981 37.8617 25.7719C37.539 25.4456 37.3955 25.0469 37.3955 24.5394V9.53305C37.3955 9.02559 37.539 8.59062 37.8617 8.30065C38.1845 7.97442 38.579 7.82943 39.081 7.82943C39.5831 7.82943 40.0135 7.97442 40.3004 8.30065C40.6231 8.62687 40.7666 9.02559 40.7666 9.53305V9.89553C41.4838 9.17058 42.3086 8.62687 43.2769 8.22815C44.2452 7.82943 45.2852 7.64819 46.397 7.64819C47.9032 7.68444 49.3018 8.01067 50.5211 8.66312Z" fill="#161C26"></path><path d="M63.5033 4.31343C62.7502 5.14712 62.3916 6.23454 62.3916 7.61194V8.51812H65.7626C66.2289 8.51812 66.5875 8.66311 66.8744 8.91684C67.1613 9.17058 67.3047 9.53305 67.3047 10.0043C67.3047 10.403 67.1613 10.7292 66.8744 11.0192C66.5875 11.2729 66.2289 11.4179 65.7626 11.4179H62.3916V24.4669C62.3916 24.9744 62.2481 25.4094 61.9254 25.6994C61.6026 26.0256 61.1723 26.1706 60.6343 26.1706C60.204 26.1706 59.8095 26.0256 59.4867 25.6994C59.164 25.3731 59.0205 24.9744 59.0205 24.4669V11.4179H57.586C57.1198 11.4179 56.7612 11.2729 56.4743 11.0192C56.1874 10.7655 56.0439 10.403 56.0439 10.0043C56.0439 9.5693 56.1874 9.20682 56.4743 8.91684C56.7612 8.66311 57.1198 8.51812 57.586 8.51812H59.0205V7.93817C59.0205 6.34328 59.3433 4.96588 59.9529 3.76972C60.5985 2.57356 61.4592 1.63113 62.6068 0.978678C63.7544 0.326226 65.0454 0 66.5158 0C67.0178 0 67.4123 0.144989 67.7351 0.434968C68.0578 0.724947 68.2013 1.08742 68.2013 1.55864C68.2013 1.9936 68.0578 2.35608 67.7351 2.6823C67.4123 2.97228 67.0178 3.11727 66.5158 3.11727C65.2606 3.08102 64.2564 3.47974 63.5033 4.31343Z" fill="#161C26"></path><path d="M79.5695 23.2707C79.8564 23.5969 79.9999 23.9957 79.9999 24.4669C79.9999 24.9743 79.8206 25.3731 79.4619 25.663C79.1033 25.9893 78.6371 26.1343 78.0633 26.1343H77.4537C76.3778 26.1343 75.3736 25.8443 74.4771 25.2643C73.5805 24.6844 72.8633 23.9232 72.3612 22.9445C71.8591 21.9658 71.6081 20.8422 71.6081 19.6097V11.3816H70.066C69.5998 11.3816 69.2412 11.2366 68.9543 10.9829C68.6674 10.7291 68.5239 10.3667 68.5239 9.96795C68.5239 9.53298 68.6674 9.17051 68.9543 8.88053C69.2412 8.6268 69.5998 8.48181 70.066 8.48181H71.6081V3.69716C71.6081 3.1897 71.7515 2.79098 72.0743 2.501C72.3971 2.17477 72.7915 2.02979 73.2578 2.02979C73.7598 2.02979 74.1543 2.17477 74.4412 2.501C74.764 2.82723 74.9074 3.22595 74.9074 3.69716V8.51806H77.7406C78.2068 8.51806 78.5654 8.66305 78.8523 8.91678C79.1392 9.17051 79.2826 9.53298 79.2826 10.0042C79.2826 10.4029 79.1392 10.7291 78.8523 11.0191C78.5654 11.2729 78.2068 11.4178 77.7406 11.4178H74.9074V19.6822C74.9074 20.5884 75.1585 21.3134 75.6247 21.9296C76.1267 22.5458 76.7005 22.8358 77.4178 22.8358H78.5295C78.9599 22.7995 79.2826 22.9807 79.5695 23.2707Z" fill="#161C26"></path><path d="M99.0069 0.471215C99.3297 0.797441 99.4732 1.19616 99.4732 1.70362V17C99.4732 18.7399 99.0787 20.3348 98.2538 21.7484C97.4649 23.162 96.3531 24.2857 94.9545 25.0832C93.5559 25.9168 92.0496 26.3156 90.3282 26.3156C88.6427 26.3156 87.0648 25.9168 85.6661 25.0832C84.2675 24.2857 83.1558 23.162 82.3668 21.7484C81.5778 20.3348 81.1833 18.7399 81.1833 17C81.1833 15.2601 81.542 13.6652 82.2951 12.2516C83.0482 10.838 84.0523 9.71429 85.3434 8.91684C86.6344 8.1194 88.0689 7.72068 89.6827 7.72068C90.9738 7.72068 92.1572 7.97441 93.269 8.51812C94.3807 9.06183 95.3131 9.78678 96.1021 10.7655V1.70362C96.1021 1.19616 96.2455 0.761194 96.5683 0.471215C96.8911 0.144989 97.2856 0 97.7876 0C98.2897 0 98.6842 0.144989 99.0069 0.471215ZM93.3407 22.4733C94.2372 21.9296 94.9545 21.1684 95.4566 20.226C95.9586 19.2836 96.2097 18.1962 96.2097 17C96.2097 15.8038 95.9586 14.7527 95.4566 13.8102C94.9545 12.8678 94.2372 12.1066 93.3407 11.5629C92.4441 11.0192 91.44 10.7292 90.3282 10.7292C89.2165 10.7292 88.2124 11.0192 87.3158 11.5629C86.4193 12.1066 85.702 12.8678 85.1999 13.8102C84.6979 14.7527 84.411 15.8401 84.411 17C84.411 18.1962 84.662 19.2473 85.1999 20.226C85.702 21.2047 86.4193 21.9296 87.3158 22.4733C88.2124 23.0171 89.2165 23.307 90.3282 23.307C91.44 23.2708 92.4441 23.0171 93.3407 22.4733Z" fill="#5BB973"></path><path d="M114.428 8.1919C115.073 8.55438 115.432 8.98934 115.432 9.53305C115.432 9.67804 115.432 9.78679 115.396 9.85928C115.181 10.5842 114.75 10.9467 114.069 10.9467C113.962 10.9467 113.782 10.9105 113.567 10.8742C112.67 10.7292 111.953 10.6567 111.415 10.6567C109.837 10.6567 108.546 11.0192 107.578 11.7804C106.61 12.5053 106.108 13.5203 106.108 14.7527V24.5394C106.108 25.0832 105.964 25.4819 105.677 25.7719C105.39 26.0618 104.996 26.2068 104.422 26.2068C103.884 26.2068 103.49 26.0618 103.203 25.7719C102.916 25.4819 102.772 25.0832 102.772 24.5032V9.53305C102.772 8.98934 102.916 8.59062 103.203 8.30065C103.49 8.01067 103.884 7.86568 104.422 7.86568C105.534 7.86568 106.072 8.40939 106.072 9.53305V10.1493C106.717 9.35182 107.542 8.73561 108.51 8.30065C109.479 7.86568 110.519 7.64819 111.63 7.64819C112.85 7.64819 113.746 7.82943 114.428 8.1919Z" fill="#5BB973"></path><path d="M121.062 25.1194C119.664 24.322 118.588 23.2346 117.799 21.8209C117.01 20.4073 116.651 18.8124 116.651 17.0363C116.651 15.2239 117.046 13.629 117.799 12.2154C118.552 10.8017 119.664 9.71431 121.062 8.91687C122.461 8.11942 124.039 7.7207 125.796 7.7207C127.554 7.7207 129.096 8.11942 130.494 8.91687C131.893 9.71431 132.969 10.8017 133.758 12.2154C134.547 13.629 134.941 15.2239 134.941 17.0363C134.941 18.8124 134.547 20.4073 133.794 21.8209C133.005 23.2346 131.929 24.322 130.566 25.1194C129.167 25.9169 127.625 26.3156 125.832 26.3156C124.003 26.3156 122.425 25.9169 121.062 25.1194ZM128.809 22.4734C129.705 21.9297 130.387 21.2047 130.889 20.2623C131.391 19.3198 131.642 18.2324 131.642 17.0363C131.642 15.8401 131.391 14.7527 130.889 13.774C130.387 12.8316 129.705 12.0704 128.809 11.5267C127.912 10.983 126.908 10.7292 125.76 10.7292C124.613 10.7292 123.609 10.983 122.712 11.5267C121.816 12.0704 121.098 12.7953 120.596 13.774C120.094 14.7527 119.843 15.8039 119.843 17.0363C119.843 18.2324 120.094 19.3198 120.596 20.2623C121.098 21.2047 121.816 21.9659 122.712 22.4734C123.609 23.0171 124.613 23.2708 125.76 23.2708C126.908 23.2708 127.912 23.0171 128.809 22.4734Z" fill="#5BB973"></path><path d="M151.725 8.91687C153.123 9.71431 154.235 10.838 155.024 12.2516C155.813 13.6653 156.208 15.2601 156.208 17C156.208 18.7399 155.849 20.3348 155.096 21.7484C154.343 23.1621 153.339 24.2857 152.047 25.0832C150.756 25.8806 149.322 26.2793 147.708 26.2793C146.417 26.2793 145.234 26.0256 144.122 25.4819C143.01 24.9382 142.078 24.2132 141.289 23.2346V32.2964C141.289 32.8039 141.145 33.2388 140.823 33.5288C140.5 33.855 140.105 34 139.603 34C139.101 34 138.707 33.855 138.384 33.5288C138.061 33.2026 137.918 32.8039 137.918 32.2964V17.0363C137.918 15.2964 138.312 13.7015 139.137 12.2879C139.926 10.8742 141.038 9.75055 142.436 8.95311C143.835 8.15567 145.341 7.7207 147.063 7.7207C148.784 7.7207 150.326 8.11942 151.725 8.91687ZM150.075 22.4734C150.972 21.9297 151.689 21.1685 152.191 20.226C152.693 19.2836 152.98 18.1962 152.98 17.0363C152.98 15.8401 152.729 14.7889 152.191 13.8103C151.689 12.8678 150.972 12.1066 150.075 11.5629C149.179 11.0192 148.174 10.7292 147.063 10.7292C145.951 10.7292 144.947 11.0192 144.05 11.5629C143.154 12.1066 142.436 12.8678 141.934 13.8103C141.432 14.7889 141.181 15.8401 141.181 17.0363C141.181 18.2324 141.432 19.2836 141.934 20.226C142.436 21.1685 143.154 21.9297 144.05 22.4734C144.947 23.0171 145.951 23.3071 147.063 23.3071C148.174 23.2708 149.179 23.0171 150.075 22.4734Z" fill="#5BB973"></path><path d="M161.623 25.5906C160.296 25.1194 159.256 24.5032 158.503 23.742C158.216 23.452 158.072 23.0896 158.072 22.6908C158.072 22.1471 158.287 21.7122 158.718 21.3859C159.148 21.0597 159.507 20.9147 159.865 20.9147C160.296 20.9147 160.726 21.1322 161.121 21.5309C161.551 22.0021 162.161 22.4009 163.021 22.7633C163.846 23.1258 164.743 23.2708 165.711 23.2708C166.966 23.2708 167.934 23.0533 168.652 22.6183C169.333 22.1834 169.692 21.6397 169.692 20.9147C169.692 20.226 169.333 19.6461 168.652 19.1748C167.97 18.7036 166.823 18.3412 165.173 18.0149C160.941 17.1812 158.825 15.4414 158.825 12.7228C158.825 11.6354 159.148 10.693 159.794 9.93178C160.439 9.17058 161.264 8.59062 162.304 8.22815C163.344 7.86568 164.456 7.64819 165.603 7.64819C167.038 7.64819 168.329 7.86568 169.477 8.33689C170.624 8.80811 171.521 9.46056 172.166 10.2942C172.453 10.6567 172.597 11.0192 172.597 11.3817C172.597 11.7441 172.417 12.1066 172.023 12.4328C171.772 12.6141 171.485 12.6866 171.09 12.6866C170.517 12.6866 169.979 12.4691 169.548 12.0341C169.01 11.5267 168.401 11.1642 167.791 10.9467C167.181 10.7292 166.428 10.6205 165.532 10.6205C164.527 10.6205 163.667 10.8017 163.021 11.1279C162.376 11.4904 162.053 11.9616 162.053 12.5778C162.053 13.0128 162.161 13.4115 162.376 13.7015C162.591 13.9915 163.021 14.2815 163.631 14.5352C164.241 14.7889 165.137 15.0426 166.321 15.2964C168.723 15.8038 170.445 16.4563 171.449 17.3262C172.453 18.1962 172.955 19.3198 172.955 20.6972C172.955 21.7122 172.668 22.6546 172.13 23.4883C171.592 24.322 170.768 24.9744 169.692 25.4819C168.616 25.9531 167.325 26.2068 165.819 26.2068C164.348 26.3156 162.95 26.0618 161.623 25.5906Z" fill="#5BB973"></path><path d="M28.6809 14.7804L22.7278 4.3049C22.2616 3.50746 21.4009 3 20.5043 3H14.5153C14.5153 3 19.8229 9.19829 19.8229 13.8742C19.8229 16.8465 17.456 19.2388 14.5153 19.2388C11.5746 19.2388 9.20766 16.8465 9.20766 13.8742C9.20766 9.16205 14.5153 3 14.5153 3H8.52627C7.59385 3 6.76902 3.50746 6.30281 4.3049L0.349658 14.7804C-0.116553 15.5778 -0.116553 16.5928 0.349658 17.3902L6.33867 27.8657C6.80488 28.6631 7.62972 29.1706 8.56214 29.1706H20.5043C21.4367 29.1706 22.2616 28.6631 22.7278 27.8657L28.6809 17.3539C29.1471 16.5565 29.1471 15.5778 28.6809 14.7804Z" fill="#5BB973"></path></svg>