<svg xmlns="http://www.w3.org/2000/svg" xmlns:xlink="http://www.w3.org/1999/xlink" width="250" zoomAndPan="magnify" viewBox="0 0 187.5 74.999997" height="100" preserveAspectRatio="xMidYMid meet" version="1.0"><path fill="#ffd700" d="M 38.125 33.519531 L 28.582031 32.128906 L 24.308594 23.480469 C 24.058594 22.972656 23.226562 22.972656 22.980469 23.480469 L 18.710938 32.128906 L 9.164062 33.519531 C 8.886719 33.558594 8.652344 33.753906 8.566406 34.023438 C 8.480469 34.292969 8.550781 34.585938 8.753906 34.78125 L 15.660156 41.515625 L 14.03125 51.023438 C 13.980469 51.304688 14.097656 51.582031 14.324219 51.746094 C 14.554688 51.914062 14.855469 51.9375 15.105469 51.804688 L 23.644531 47.316406 L 32.183594 51.804688 C 32.289062 51.863281 32.40625 51.890625 32.527344 51.890625 C 32.679688 51.890625 32.832031 51.84375 32.964844 51.746094 C 33.1875 51.582031 33.300781 51.304688 33.253906 51.023438 L 31.625 41.515625 L 38.535156 34.78125 C 38.738281 34.585938 38.808594 34.289062 38.722656 34.023438 C 38.636719 33.753906 38.40625 33.558594 38.125 33.519531 Z M 38.125 33.519531 " fill-opacity="1" fill-rule="nonzero"/><path fill="#ffd700" d="M 73.140625 33.519531 L 63.597656 32.128906 L 59.324219 23.480469 C 59.078125 22.972656 58.246094 22.972656 58 23.480469 L 53.722656 32.128906 L 44.179688 33.519531 C 43.902344 33.558594 43.671875 33.753906 43.582031 34.023438 C 43.496094 34.292969 43.566406 34.585938 43.773438 34.78125 L 50.679688 41.515625 L 49.046875 51.023438 C 49.003906 51.304688 49.113281 51.582031 49.339844 51.746094 C 49.570312 51.914062 49.875 51.9375 50.121094 51.804688 L 58.664062 47.316406 L 67.199219 51.804688 C 67.304688 51.863281 67.425781 51.890625 67.542969 51.890625 C 67.699219 51.890625 67.851562 51.84375 67.984375 51.746094 C 68.207031 51.582031 68.324219 51.304688 68.273438 51.023438 L 66.640625 41.515625 L 73.554688 34.78125 C 73.753906 34.585938 73.824219 34.289062 73.742188 34.023438 C 73.65625 33.753906 73.425781 33.558594 73.140625 33.519531 Z M 73.140625 33.519531 " fill-opacity="1" fill-rule="nonzero"/><path fill="#ffd700" d="M 108.519531 33.519531 L 98.976562 32.128906 L 94.707031 23.480469 C 94.457031 22.972656 93.625 22.972656 93.378906 23.480469 L 89.105469 32.128906 L 79.5625 33.519531 C 79.28125 33.558594 79.046875 33.753906 78.964844 34.023438 C 78.875 34.292969 78.945312 34.585938 79.152344 34.78125 L 86.058594 41.515625 L 84.425781 51.023438 C 84.378906 51.304688 84.492188 51.582031 84.722656 51.746094 C 84.945312 51.914062 85.253906 51.9375 85.5 51.804688 L 94.042969 47.316406 L 102.582031 51.804688 C 102.683594 51.863281 102.804688 51.890625 102.921875 51.890625 C 103.078125 51.890625 103.230469 51.84375 103.359375 51.746094 C 103.582031 51.582031 103.703125 51.304688 103.652344 51.023438 L 102.023438 41.515625 L 108.929688 34.78125 C 109.132812 34.585938 109.203125 34.289062 109.117188 34.023438 C 109.035156 33.753906 108.800781 33.558594 108.519531 33.519531 Z M 108.519531 33.519531 " fill-opacity="1" fill-rule="nonzero"/><path fill="#ffd700" d="M 142.839844 33.519531 L 133.292969 32.128906 L 129.019531 23.480469 C 128.769531 22.972656 127.9375 22.972656 127.691406 23.480469 L 123.421875 32.128906 L 113.875 33.519531 C 113.59375 33.558594 113.367188 33.753906 113.273438 34.023438 C 113.1875 34.292969 113.257812 34.585938 113.460938 34.78125 L 120.371094 41.515625 L 118.738281 51.023438 C 118.691406 51.304688 118.804688 51.582031 119.03125 51.746094 C 119.261719 51.914062 119.566406 51.9375 119.816406 51.804688 L 128.355469 47.316406 L 136.890625 51.804688 C 137 51.863281 137.117188 51.890625 137.238281 51.890625 C 137.390625 51.890625 137.542969 51.84375 137.671875 51.746094 C 137.894531 51.582031 138.011719 51.304688 137.964844 51.023438 L 136.335938 41.515625 L 143.242188 34.78125 C 143.441406 34.585938 143.515625 34.289062 143.429688 34.023438 C 143.34375 33.753906 143.113281 33.558594 142.839844 33.519531 Z M 142.839844 33.519531 " fill-opacity="1" fill-rule="nonzero"/><path fill="#ffd700" d="M 178.445312 34.023438 C 178.359375 33.753906 178.121094 33.558594 177.847656 33.519531 L 168.300781 32.128906 L 164.027344 23.480469 C 163.78125 22.972656 162.949219 22.972656 162.699219 23.480469 L 158.433594 32.128906 L 148.882812 33.519531 C 148.605469 33.558594 148.375 33.753906 148.285156 34.023438 C 148.195312 34.292969 148.269531 34.585938 148.472656 34.78125 L 155.382812 41.515625 L 153.753906 51.023438 C 153.707031 51.304688 153.816406 51.582031 154.046875 51.746094 C 154.273438 51.914062 154.578125 51.9375 154.824219 51.804688 L 163.363281 47.316406 L 171.90625 51.804688 C 172.011719 51.863281 172.128906 51.890625 172.246094 51.890625 C 172.402344 51.890625 172.554688 51.84375 172.6875 51.746094 C 172.910156 51.582031 173.023438 51.304688 172.976562 51.023438 L 171.347656 41.515625 L 178.253906 34.78125 C 178.460938 34.585938 178.53125 34.292969 178.445312 34.023438 Z M 178.445312 34.023438 " fill-opacity="1" fill-rule="nonzero"/></svg>